<svg width="88" height="87" viewBox="0 0 88 87" fill="none" xmlns="http://www.w3.org/2000/svg">
<path d="M44 0.53772C67.8179 0.53772 87.125 19.8425 87.125 43.6575C87.125 67.4726 67.8179 86.7773 44 86.7773C20.1821 86.7773 0.875 67.4726 0.875 43.6575C0.875 19.8425 20.1821 0.53772 44 0.53772ZM44 7.00569C34.2782 7.00569 24.9545 10.8672 18.0801 17.7408C11.2057 24.6143 7.34375 33.9369 7.34375 43.6575C7.34375 53.3782 11.2057 62.7007 18.0801 69.5743C24.9545 76.4479 34.2782 80.3094 44 80.3094C53.7218 80.3094 63.0455 76.4479 69.9199 69.5743C76.7943 62.7007 80.6562 53.3782 80.6562 43.6575C80.6562 33.9369 76.7943 24.6143 69.9199 17.7408C63.0455 10.8672 53.7218 7.00569 44 7.00569V7.00569ZM31.2911 28.9321C31.5171 28.481 31.8943 28.1235 32.3568 27.9218C32.8194 27.7201 33.3381 27.687 33.8225 27.8283L34.1847 27.9705L61.7071 41.7258C62.0365 41.8901 62.3183 42.1359 62.5257 42.4399C62.7332 42.7439 62.8593 43.096 62.8922 43.4625C62.925 43.8291 62.8635 44.198 62.7134 44.534C62.5634 44.87 62.3298 45.1621 62.0349 45.3823L61.7071 45.585L34.1847 59.3445C33.8855 59.4946 33.5554 59.5729 33.2206 59.5733C32.8858 59.5737 32.5555 59.4961 32.2559 59.3468C31.9563 59.1974 31.6956 58.9803 31.4945 58.7128C31.2933 58.4452 31.1572 58.1344 31.097 57.8051L31.0625 57.4127V29.898C31.0625 29.5626 31.1408 29.2319 31.2911 28.9321V28.9321Z" fill="white"/>
</svg>
