<svg width="24" height="24" viewBox="0 0 24 24" fill="none" xmlns="http://www.w3.org/2000/svg">
<path fill-rule="evenodd" clip-rule="evenodd" d="M7.36365 2C7.60475 2 7.83598 2.09578 8.00647 2.26627C8.17696 2.43675 8.27274 2.66799 8.27274 2.90909V8.36365C8.27274 8.60475 8.17696 8.83598 8.00647 9.00647C7.83598 9.17696 7.60475 9.27274 7.36365 9.27274H1.90909C1.66799 9.27274 1.43675 9.17696 1.26627 9.00647C1.09578 8.83598 1 8.60475 1 8.36365C1 8.12254 1.09578 7.89131 1.26627 7.72082C1.43675 7.55033 1.66799 7.45455 1.90909 7.45455H6.45455V2.90909C6.45455 2.66799 6.55033 2.43675 6.72082 2.26627C6.89131 2.09578 7.12254 2 7.36365 2V2ZM14.6364 2C14.8775 2 15.1087 2.09578 15.2792 2.26627C15.4497 2.43675 15.5455 2.66799 15.5455 2.90909V7.45455H20.0909C20.332 7.45455 20.5633 7.55033 20.7338 7.72082C20.9042 7.89131 21 8.12254 21 8.36365C21 8.60475 20.9042 8.83598 20.7338 9.00647C20.5633 9.17696 20.332 9.27274 20.0909 9.27274H14.6364C14.3953 9.27274 14.164 9.17696 13.9936 9.00647C13.8231 8.83598 13.7273 8.60475 13.7273 8.36365V2.90909C13.7273 2.66799 13.8231 2.43675 13.9936 2.26627C14.164 2.09578 14.3953 2 14.6364 2V2ZM1 15.6364C1 15.3953 1.09578 15.164 1.26627 14.9936C1.43675 14.8231 1.66799 14.7273 1.90909 14.7273H7.36365C7.60475 14.7273 7.83598 14.8231 8.00647 14.9936C8.17696 15.164 8.27274 15.3953 8.27274 15.6364V21.0909C8.27274 21.332 8.17696 21.5633 8.00647 21.7338C7.83598 21.9042 7.60475 22 7.36365 22C7.12254 22 6.89131 21.9042 6.72082 21.7338C6.55033 21.5633 6.45455 21.332 6.45455 21.0909V16.5455H1.90909C1.66799 16.5455 1.43675 16.4497 1.26627 16.2792C1.09578 16.1087 1 15.8775 1 15.6364ZM13.7273 15.6364C13.7273 15.3953 13.8231 15.164 13.9936 14.9936C14.164 14.8231 14.3953 14.7273 14.6364 14.7273H20.0909C20.332 14.7273 20.5633 14.8231 20.7338 14.9936C20.9042 15.164 21 15.3953 21 15.6364C21 15.8775 20.9042 16.1087 20.7338 16.2792C20.5633 16.4497 20.332 16.5455 20.0909 16.5455H15.5455V21.0909C15.5455 21.332 15.4497 21.5633 15.2792 21.7338C15.1087 21.9042 14.8775 22 14.6364 22C14.3953 22 14.164 21.9042 13.9936 21.7338C13.8231 21.5633 13.7273 21.332 13.7273 21.0909V15.6364Z" fill="white"/>
</svg>
