<svg width="13" height="12" viewBox="0 0 13 12" fill="none" xmlns="http://www.w3.org/2000/svg">
<path d="M6.12816 0C2.80554 0 0.11145 2.68661 0.11145 6C0.11145 9.31339 2.80554 12 6.12816 12C9.45079 12 12.1449 9.31339 12.1449 6C12.1449 2.68661 9.45079 0 6.12816 0ZM8.06345 6.09241L5.1303 8.22054C5.11422 8.23206 5.09527 8.23894 5.07552 8.24042C5.05578 8.2419 5.036 8.23792 5.01838 8.22892C5.00075 8.21993 4.98595 8.20626 4.97561 8.18942C4.96526 8.17258 4.95977 8.15323 4.95974 8.13348V3.87991C4.95967 3.86012 4.9651 3.84071 4.97543 3.82381C4.98575 3.80691 5.00057 3.7932 5.01823 3.78418C5.03589 3.77517 5.05571 3.77121 5.07549 3.77274C5.09528 3.77427 5.11425 3.78123 5.1303 3.79286L8.06345 5.91964C8.07731 5.92942 8.08861 5.94236 8.09641 5.95739C8.10421 5.97242 8.10829 5.9891 8.10829 6.00603C8.10829 6.02295 8.10421 6.03963 8.09641 6.05466C8.08861 6.06969 8.07731 6.08264 8.06345 6.09241Z" fill="#979797"/>
</svg>
