<svg width="12" height="12" viewBox="0 0 12 12" fill="none" xmlns="http://www.w3.org/2000/svg">
<path d="M6 0C2.68661 0 0 2.68661 0 6C0 9.31339 2.68661 12 6 12C9.31339 12 12 9.31339 12 6C12 2.68661 9.31339 0 6 0ZM7.92991 6.09241L5.00491 8.22054C4.98887 8.23206 4.96997 8.23894 4.95028 8.24042C4.93059 8.2419 4.91087 8.23792 4.8933 8.22892C4.87572 8.21993 4.86096 8.20626 4.85064 8.18942C4.84033 8.17258 4.83485 8.15323 4.83482 8.13348V3.87991C4.83476 3.86012 4.84017 3.84071 4.85047 3.82381C4.86076 3.80691 4.87554 3.7932 4.89315 3.78418C4.91076 3.77517 4.93053 3.77121 4.95025 3.77274C4.96998 3.77427 4.9889 3.78123 5.00491 3.79286L7.92991 5.91964C7.94373 5.92942 7.955 5.94236 7.96278 5.95739C7.97056 5.97242 7.97462 5.9891 7.97462 6.00603C7.97462 6.02295 7.97056 6.03963 7.96278 6.05466C7.955 6.06969 7.94373 6.08264 7.92991 6.09241Z" fill="#006996"/>
</svg>
