<svg width="37" height="19" viewBox="0 0 37 19" fill="none" xmlns="http://www.w3.org/2000/svg">
<path d="M6.47522 12.4447C6.40188 12.4447 6.34522 12.4347 6.30522 12.4147C6.26522 12.4014 6.22855 12.3547 6.19522 12.2747L5.56521 10.6247H2.45521L1.82521 12.2747C1.79188 12.3547 1.75521 12.4014 1.71521 12.4147C1.68188 12.4347 1.62855 12.4447 1.55521 12.4447H0.585215C0.478548 12.4447 0.408548 12.4247 0.375215 12.3847C0.341882 12.3514 0.345215 12.288 0.385215 12.1947L3.29522 4.91468C3.34188 4.80135 3.42188 4.74468 3.53521 4.74468H4.50521C4.59188 4.74468 4.64855 4.75802 4.67522 4.78468C4.70188 4.80468 4.73188 4.85135 4.76522 4.92468L7.65521 12.1947C7.69522 12.2947 7.69855 12.3614 7.66522 12.3947C7.63855 12.428 7.56855 12.4447 7.45522 12.4447H6.47522ZM2.92522 9.39468H5.09522L4.01521 6.56468L2.92522 9.39468Z" fill="white"/>
<path d="M29.078 12.4997C29.012 12.4997 28.9607 12.4924 28.924 12.4777C28.8873 12.463 28.869 12.4044 28.869 12.3017V4.27168C28.869 4.19102 28.8763 4.13235 28.891 4.09568C28.913 4.05168 28.9753 4.02968 29.078 4.02968H31.036C31.4467 4.02968 31.817 4.07735 32.147 4.17268C32.4843 4.26068 32.7703 4.39635 33.005 4.57968C33.2397 4.76302 33.4193 4.99768 33.544 5.28368C33.676 5.56235 33.742 5.88868 33.742 6.26268C33.742 6.44602 33.7127 6.62935 33.654 6.81268C33.6027 6.98868 33.5257 7.15735 33.423 7.31868C33.3203 7.47268 33.1957 7.61568 33.049 7.74768C32.9023 7.87235 32.7373 7.97868 32.554 8.06668C32.774 8.14735 32.9683 8.25368 33.137 8.38568C33.313 8.51768 33.4597 8.66802 33.577 8.83668C33.7017 8.99802 33.7933 9.17035 33.852 9.35368C33.918 9.53702 33.951 9.72035 33.951 9.90368C33.951 10.7397 33.687 11.3814 33.159 11.8287C32.631 12.276 31.8317 12.4997 30.761 12.4997H29.078ZM30.365 5.36068V7.48368H30.849C31.113 7.48368 31.333 7.45435 31.509 7.39568C31.685 7.33702 31.8243 7.25635 31.927 7.15368C32.037 7.05102 32.114 6.93368 32.158 6.80168C32.202 6.66235 32.224 6.51202 32.224 6.35068C32.224 6.21868 32.2057 6.09402 32.169 5.97668C32.1323 5.85202 32.0663 5.74568 31.971 5.65768C31.883 5.56968 31.762 5.50002 31.608 5.44868C31.454 5.39002 31.2633 5.36068 31.036 5.36068H30.365ZM30.343 8.71568V11.1687H30.783C31.113 11.1687 31.3843 11.1394 31.597 11.0807C31.8097 11.0147 31.9783 10.9304 32.103 10.8277C32.235 10.7177 32.3267 10.5894 32.378 10.4427C32.4293 10.2887 32.455 10.1237 32.455 9.94768C32.455 9.77168 32.4257 9.61035 32.367 9.46368C32.3157 9.30968 32.2203 9.17768 32.081 9.06768C31.949 8.95768 31.7657 8.87335 31.531 8.81468C31.3037 8.74868 31.0177 8.71568 30.673 8.71568H30.343Z" fill="white"/>
<path d="M24.4694 4.44582C24.6719 4.44582 24.8564 4.52562 25.0016 4.65863C25.867 5.48047 26.492 6.57714 26.7949 7.80528C27.0978 9.03342 27.0645 10.3359 26.6994 11.5424C26.3343 12.7489 25.6543 13.8033 24.7483 14.5677C23.8424 15.3322 22.7526 15.7712 21.6215 15.8272L21.3773 15.8336H16.3804L17.7531 17.3789C17.8959 17.54 17.9826 17.7533 17.9974 17.9802C18.0123 18.2071 17.9544 18.4324 17.8341 18.6153L17.752 18.7217C17.6091 18.8826 17.4197 18.9804 17.2182 18.9974C17.0166 19.0143 16.8164 18.9493 16.6538 18.8141L16.5593 18.7217L13.7464 15.5549C13.6034 15.394 13.5165 15.1808 13.5015 14.9539C13.4864 14.727 13.5441 14.5016 13.6642 14.3186L13.7464 14.2122L16.5593 11.0454C16.7101 10.877 16.9117 10.7788 17.124 10.7703C17.3363 10.7619 17.5435 10.8439 17.7045 11C17.8654 11.1561 17.9681 11.3747 17.9922 11.6123C18.0162 11.8498 17.9598 12.0889 17.8341 12.2817L17.752 12.3881L16.3793 13.9335H21.3773C22.3845 13.9336 23.3533 13.4993 24.0848 12.7199C24.8162 11.9405 25.2546 10.8753 25.3099 9.74321L25.3155 9.5C25.3155 8.13068 24.7642 6.90577 23.8978 6.09254C23.7735 5.96286 23.6868 5.79406 23.6489 5.60813C23.6111 5.4222 23.6238 5.22774 23.6855 5.05007C23.7472 4.8724 23.8549 4.71974 23.9947 4.61197C24.1345 4.5042 24.2999 4.4463 24.4694 4.44582V4.44582ZM18.2471 0.278338C18.39 0.117443 18.5794 0.0196171 18.7809 0.0026476C18.9825 -0.0143219 19.1827 0.050692 19.3453 0.185868L19.4398 0.278338L22.2527 3.44512L22.3349 3.55152C22.4409 3.71293 22.4987 3.90798 22.5001 4.1087C22.5015 4.30941 22.4464 4.50548 22.3428 4.66876L22.2527 4.78783L19.4398 7.95461L19.3453 8.04708C19.2019 8.16639 19.0286 8.23152 18.8503 8.23311C18.6721 8.2347 18.4979 8.17268 18.3529 8.05595L18.2471 7.95461L18.1649 7.84821C18.059 7.6868 18.0011 7.49174 17.9997 7.29103C17.9983 7.09031 18.0534 6.89425 18.1571 6.73097L18.2471 6.6119L19.6187 5.06651H14.6217C13.6146 5.06642 12.6458 5.50071 11.9143 6.28009C11.1829 7.05947 10.7445 8.12471 10.6892 9.25679L10.6836 9.5C10.6836 10.8718 11.2372 12.098 12.1058 12.9113C12.2597 13.084 12.3484 13.317 12.3535 13.5615C12.3587 13.8061 12.2798 14.0435 12.1333 14.2242C11.9868 14.405 11.7841 14.5151 11.5673 14.5317C11.3504 14.5484 11.1363 14.4702 10.9694 14.3135C10.1115 13.4876 9.49422 12.3903 9.19765 11.1642C8.90108 9.93804 8.93899 8.63985 9.30644 7.43832C9.67389 6.23678 10.3539 5.18747 11.2581 4.42676C12.1623 3.66605 13.2488 3.22912 14.3765 3.17277L14.6217 3.16644H19.6176L18.2471 1.62105L18.1649 1.51465C18.0449 1.33165 17.9871 1.10621 18.0022 0.879331C18.0173 0.652451 18.1042 0.439195 18.2471 0.278338V0.278338Z" fill="white"/>
</svg>
