<svg width="45" height="20" viewBox="0 0 45 20" fill="none" xmlns="http://www.w3.org/2000/svg">
<path d="M6.47522 13.4447C6.40188 13.4447 6.34522 13.4347 6.30522 13.4147C6.26522 13.4014 6.22855 13.3547 6.19522 13.2747L5.56521 11.6247H2.45521L1.82521 13.2747C1.79188 13.3547 1.75521 13.4014 1.71521 13.4147C1.68188 13.4347 1.62855 13.4447 1.55521 13.4447H0.585215C0.478548 13.4447 0.408548 13.4247 0.375215 13.3847C0.341882 13.3514 0.345215 13.288 0.385215 13.1947L3.29522 5.91468C3.34188 5.80135 3.42188 5.74468 3.53521 5.74468H4.50521C4.59188 5.74468 4.64855 5.75802 4.67522 5.78468C4.70188 5.80468 4.73188 5.85135 4.76522 5.92468L7.65521 13.1947C7.69522 13.2947 7.69855 13.3614 7.66522 13.3947C7.63855 13.428 7.56855 13.4447 7.45522 13.4447H6.47522ZM2.92522 10.3947H5.09522L4.01521 7.56468L2.92522 10.3947Z" fill="white"/>
<path d="M37.4599 13.4447C37.3999 13.4447 37.3532 13.438 37.3199 13.4247C37.2865 13.4114 37.2699 13.358 37.2699 13.2647V5.96468C37.2699 5.89135 37.2765 5.83802 37.2899 5.80468C37.3099 5.76468 37.3665 5.74468 37.4599 5.74468H39.2399C39.6132 5.74468 39.9499 5.78802 40.2499 5.87468C40.5565 5.95468 40.8165 6.07802 41.0299 6.24468C41.2432 6.41135 41.4065 6.62468 41.5199 6.88468C41.6399 7.13802 41.6999 7.43468 41.6999 7.77468C41.6999 7.94135 41.6732 8.10802 41.6199 8.27468C41.5732 8.43468 41.5032 8.58802 41.4099 8.73468C41.3165 8.87468 41.2032 9.00468 41.0699 9.12468C40.9365 9.23802 40.7865 9.33468 40.6199 9.41468C40.8199 9.48802 40.9965 9.58468 41.1499 9.70468C41.3099 9.82468 41.4432 9.96135 41.5499 10.1147C41.6632 10.2614 41.7465 10.418 41.7999 10.5847C41.8599 10.7514 41.8899 10.918 41.8899 11.0847C41.8899 11.8447 41.6499 12.428 41.1699 12.8347C40.6899 13.2414 39.9632 13.4447 38.9899 13.4447H37.4599ZM38.6299 6.95468V8.88468H39.0699C39.3099 8.88468 39.5099 8.85802 39.6699 8.80468C39.8299 8.75135 39.9565 8.67802 40.0499 8.58468C40.1499 8.49135 40.2199 8.38468 40.2599 8.26468C40.2999 8.13802 40.3199 8.00135 40.3199 7.85468C40.3199 7.73468 40.3032 7.62135 40.2699 7.51468C40.2365 7.40135 40.1765 7.30468 40.0899 7.22468C40.0099 7.14468 39.8999 7.08135 39.7599 7.03468C39.6199 6.98135 39.4465 6.95468 39.2399 6.95468H38.6299ZM38.6099 10.0047V12.2347H39.0099C39.3099 12.2347 39.5565 12.208 39.7499 12.1547C39.9432 12.0947 40.0965 12.018 40.2099 11.9247C40.3299 11.8247 40.4132 11.708 40.4599 11.5747C40.5065 11.4347 40.5299 11.2847 40.5299 11.1247C40.5299 10.9647 40.5032 10.818 40.4499 10.6847C40.4032 10.5447 40.3165 10.4247 40.1899 10.3247C40.0699 10.2247 39.9032 10.148 39.6899 10.0947C39.4832 10.0347 39.2232 10.0047 38.9099 10.0047H38.6099Z" fill="white"/>
<path d="M29.3796 5.05766C29.6141 5.05766 29.8279 5.13938 29.996 5.27559C30.9982 6.1172 31.7221 7.24026 32.0729 8.49795C32.4238 9.75563 32.3852 11.0894 31.9623 12.325C31.5394 13.5605 30.7519 14.6402 29.7027 15.4231C28.6534 16.206 27.3913 16.6555 26.0813 16.7129L25.7985 16.7194H20.0113L21.6011 18.3019C21.7664 18.4668 21.8668 18.6853 21.884 18.9176C21.9013 19.15 21.8342 19.3807 21.6949 19.568L21.5998 19.677C21.4343 19.8417 21.2149 19.9419 20.9815 19.9593C20.7481 19.9767 20.5162 19.9101 20.3279 19.7717L20.2185 19.677L16.9606 16.434C16.7951 16.2693 16.6944 16.0509 16.677 15.8185C16.6595 15.5862 16.7264 15.3553 16.8655 15.1679L16.9606 15.059L20.2185 11.816C20.3931 11.6435 20.6266 11.543 20.8725 11.5343C21.1183 11.5257 21.3584 11.6097 21.5447 11.7695C21.7311 11.9293 21.8501 12.1532 21.8779 12.3965C21.9058 12.6398 21.8404 12.8846 21.6949 13.0821L21.5998 13.191L20.01 14.7736H25.7985C26.9649 14.7737 28.087 14.3289 28.9342 13.5308C29.7813 12.7327 30.289 11.6418 30.353 10.4825L30.3595 10.2334C30.3595 8.83118 29.721 7.5768 28.7176 6.74401C28.5737 6.6112 28.4732 6.43834 28.4294 6.24794C28.3855 6.05753 28.4003 5.8584 28.4717 5.67645C28.5431 5.4945 28.6679 5.33817 28.8299 5.22781C28.9918 5.11744 29.1833 5.05816 29.3796 5.05766ZM22.1732 0.789917C22.3387 0.625151 22.5581 0.524972 22.7915 0.507594C23.0249 0.490216 23.2568 0.556794 23.4451 0.695222L23.5545 0.789917L26.8124 4.03288L26.9075 4.14185C27.0302 4.30714 27.0972 4.50689 27.0989 4.71243C27.1005 4.91797 27.0367 5.11875 26.9166 5.28597L26.8124 5.4079L23.5545 8.65087L23.4451 8.74556C23.279 8.86775 23.0783 8.93444 22.8718 8.93607C22.6654 8.9377 22.4637 8.87419 22.2957 8.75464L22.1732 8.65087L22.0781 8.54191C21.9553 8.37661 21.8883 8.17687 21.8867 7.97132C21.885 7.76578 21.9488 7.565 22.0689 7.39779L22.1732 7.27585L23.7617 5.69328H17.9744C16.808 5.69319 15.6859 6.13793 14.8388 6.93606C13.9917 7.73419 13.4839 8.82506 13.42 9.98438L13.4134 10.2334C13.4134 11.6383 14.0546 12.894 15.0606 13.7268C15.2388 13.9037 15.3416 14.1422 15.3475 14.3927C15.3534 14.6432 15.2621 14.8862 15.0924 15.0713C14.9228 15.2564 14.688 15.3692 14.4369 15.3862C14.1858 15.4033 13.9377 15.3232 13.7444 15.1627C12.7509 14.317 12.0359 13.1932 11.6925 11.9376C11.349 10.682 11.3929 9.3526 11.8185 8.12216C12.244 6.89171 13.0316 5.81715 14.0788 5.03814C15.126 4.25913 16.3843 3.81169 17.6904 3.75399L17.9744 3.7475H23.7604L22.1732 2.16493L22.0781 2.05597C21.939 1.86857 21.8721 1.63771 21.8896 1.40537C21.907 1.17303 22.0077 0.954644 22.1732 0.789917Z" fill="white"/>
</svg>
