<svg width="120" height="120" viewBox="0 0 120 120" fill="none" xmlns="http://www.w3.org/2000/svg">
<rect x="41" y="39" width="14" height="42" rx="2" fill="white"/>
<rect x="65" y="39" width="14" height="42" rx="2" fill="white"/>
<path d="M60 0C93.138 0 120 26.862 120 60C120 93.138 93.138 120 60 120C26.862 120 0 93.138 0 60C0 26.862 26.862 0 60 0ZM60 9C46.474 9 33.5019 14.3732 23.9376 23.9376C14.3732 33.5019 9 46.474 9 60C9 73.526 14.3732 86.4981 23.9376 96.0625C33.5019 105.627 46.474 111 60 111C73.526 111 86.4981 105.627 96.0625 96.0625C105.627 86.4981 111 73.526 111 60C111 46.474 105.627 33.5019 96.0625 23.9376C86.4981 14.3732 73.526 9 60 9Z" fill="white"/>
</svg>
