<svg width="24" height="24" viewBox="0 0 24 24" fill="none" xmlns="http://www.w3.org/2000/svg">
<path fill-rule="evenodd" clip-rule="evenodd" d="M1 2.90909C1 2.66799 1.09578 2.43675 1.26627 2.26627C1.43675 2.09578 1.66799 2 1.90909 2H7.36364C7.60474 2 7.83597 2.09578 8.00646 2.26627C8.17695 2.43675 8.27273 2.66799 8.27273 2.90909C8.27273 3.1502 8.17695 3.38143 8.00646 3.55192C7.83597 3.7224 7.60474 3.81818 7.36364 3.81818H2.81818V8.36364C2.81818 8.60474 2.7224 8.83597 2.55192 9.00646C2.38143 9.17695 2.1502 9.27273 1.90909 9.27273C1.66799 9.27273 1.43675 9.17695 1.26627 9.00646C1.09578 8.83597 1 8.60474 1 8.36364V2.90909ZM13.7273 2.90909C13.7273 2.66799 13.8231 2.43675 13.9935 2.26627C14.164 2.09578 14.3953 2 14.6364 2H20.0909C20.332 2 20.5632 2.09578 20.7337 2.26627C20.9042 2.43675 21 2.66799 21 2.90909V8.36364C21 8.60474 20.9042 8.83597 20.7337 9.00646C20.5632 9.17695 20.332 9.27273 20.0909 9.27273C19.8498 9.27273 19.6186 9.17695 19.4481 9.00646C19.2776 8.83597 19.1818 8.60474 19.1818 8.36364V3.81818H14.6364C14.3953 3.81818 14.164 3.7224 13.9935 3.55192C13.8231 3.38143 13.7273 3.1502 13.7273 2.90909ZM1.90909 14.7273C2.1502 14.7273 2.38143 14.8231 2.55192 14.9935C2.7224 15.164 2.81818 15.3953 2.81818 15.6364V20.1818H7.36364C7.60474 20.1818 7.83597 20.2776 8.00646 20.4481C8.17695 20.6186 8.27273 20.8498 8.27273 21.0909C8.27273 21.332 8.17695 21.5632 8.00646 21.7337C7.83597 21.9042 7.60474 22 7.36364 22H1.90909C1.66799 22 1.43675 21.9042 1.26627 21.7337C1.09578 21.5632 1 21.332 1 21.0909V15.6364C1 15.3953 1.09578 15.164 1.26627 14.9935C1.43675 14.8231 1.66799 14.7273 1.90909 14.7273ZM20.0909 14.7273C20.332 14.7273 20.5632 14.8231 20.7337 14.9935C20.9042 15.164 21 15.3953 21 15.6364V21.0909C21 21.332 20.9042 21.5632 20.7337 21.7337C20.5632 21.9042 20.332 22 20.0909 22H14.6364C14.3953 22 14.164 21.9042 13.9935 21.7337C13.8231 21.5632 13.7273 21.332 13.7273 21.0909C13.7273 20.8498 13.8231 20.6186 13.9935 20.4481C14.164 20.2776 14.3953 20.1818 14.6364 20.1818H19.1818V15.6364C19.1818 15.3953 19.2776 15.164 19.4481 14.9935C19.6186 14.8231 19.8498 14.7273 20.0909 14.7273Z" fill="white"/>
</svg>
