<svg width="22" height="20" viewBox="0 0 22 20" fill="none" xmlns="http://www.w3.org/2000/svg">
<path d="M21.5474 14.3026L13.8774 1.58262C13.5673 1.09744 13.14 0.698147 12.6349 0.421562C12.1298 0.144976 11.5632 0 10.9874 0C10.4116 0 9.84499 0.144976 9.33992 0.421562C8.83485 0.698147 8.40755 1.09744 8.0974 1.58262L0.427405 14.3026C0.156458 14.7543 0.00919365 15.2693 0.00041668 15.7959C-0.00836029 16.3225 0.12166 16.8422 0.377405 17.3026C0.673084 17.8209 1.10106 18.2514 1.61761 18.55C2.13415 18.8487 2.72073 19.0049 3.3174 19.0026H18.6574C19.2502 19.0089 19.8341 18.8588 20.3503 18.5674C20.8665 18.2759 21.2966 17.8534 21.5974 17.3426C21.8607 16.8774 21.9948 16.3503 21.986 15.8158C21.9773 15.2814 21.8258 14.7589 21.5474 14.3026V14.3026ZM19.8474 16.3526C19.7272 16.5592 19.5528 16.729 19.343 16.8436C19.1333 16.9581 18.8962 17.0131 18.6574 17.0026H3.3174C3.07863 17.0131 2.84152 16.9581 2.63176 16.8436C2.42201 16.729 2.24759 16.5592 2.1274 16.3526C2.03964 16.2006 1.99343 16.0282 1.99343 15.8526C1.99343 15.6771 2.03964 15.5046 2.1274 15.3526L9.8074 2.62262C9.94541 2.44033 10.1238 2.29249 10.3285 2.1907C10.5332 2.08891 10.7588 2.03593 10.9874 2.03593C11.216 2.03593 11.4416 2.08891 11.6463 2.1907C11.851 2.29249 12.0294 2.44033 12.1674 2.62262L19.8374 15.3426C19.9286 15.4949 19.9775 15.6688 19.9793 15.8463C19.9811 16.0238 19.9355 16.1985 19.8474 16.3526V16.3526Z" fill="white"/>
<path d="M10.9874 15.0026C11.5397 15.0026 11.9874 14.5548 11.9874 14.0026C11.9874 13.4503 11.5397 13.0026 10.9874 13.0026C10.4351 13.0026 9.98743 13.4503 9.98743 14.0026C9.98743 14.5548 10.4351 15.0026 10.9874 15.0026Z" fill="white"/>
<path d="M10.9874 6.00256C10.7222 6.00256 10.4679 6.10792 10.2803 6.29546C10.0928 6.48299 9.98743 6.73735 9.98743 7.00256V11.0026C9.98743 11.2678 10.0928 11.5221 10.2803 11.7097C10.4679 11.8972 10.7222 12.0026 10.9874 12.0026C11.2526 12.0026 11.507 11.8972 11.6945 11.7097C11.8821 11.5221 11.9874 11.2678 11.9874 11.0026V7.00256C11.9874 6.73735 11.8821 6.48299 11.6945 6.29546C11.507 6.10792 11.2526 6.00256 10.9874 6.00256Z" fill="white"/>
</svg>
