<svg width="24" height="24" viewBox="0 0 24 24" fill="none" xmlns="http://www.w3.org/2000/svg">
<path d="M8.125 2H16.4583C17.2871 2 18.082 2.32924 18.668 2.91529C19.2541 3.50134 19.5833 4.2962 19.5833 5.125V20.75C19.5832 21.1539 19.4658 21.549 19.2452 21.8874C19.0246 22.2257 18.7104 22.4926 18.3409 22.6556C17.9714 22.8186 17.5624 22.8707 17.1638 22.8056C16.7652 22.7404 16.3942 22.5608 16.0958 22.2885L12.9938 19.4583C12.8018 19.2832 12.5514 19.1862 12.2917 19.1862C12.0319 19.1862 11.7815 19.2832 11.5896 19.4583L8.4875 22.2885C8.18914 22.5608 7.81809 22.7404 7.4195 22.8056C7.02091 22.8707 6.61197 22.8186 6.24244 22.6556C5.87292 22.4926 5.55875 22.2257 5.33817 21.8874C5.11758 21.549 5.00009 21.1539 5 20.75V5.125C5 4.2962 5.32924 3.50134 5.91529 2.91529C6.50134 2.32924 7.2962 2 8.125 2Z" fill="#FFE600"/>
</svg>
